#N canvas 552 170 762 708 12;
#X obj 65 395 line;
#X obj 65 35 inlet;
#X obj 65 365 pack f f;
#X obj 655 30 inlet;
#X text 458 4 line step;
#X obj 137 395 line;
#X obj 137 365 pack f f;
#X obj 207 395 line;
#X obj 207 365 pack f f;
#X obj 276 395 line;
#X obj 276 365 pack f f;
#X obj 346 395 line;
#X obj 346 365 pack f f;
#X obj 416 395 line;
#X obj 416 365 pack f f;
#X obj 65 65 unpack s s s f f f s f f f;
#X obj 135 585 fc_setObjectProperty Placement;
#X obj 135 555 pack s s f f f s f f f;
#X obj 459 29 loadbang;
#X text 65 5 object new placement;
#X text 655 6 line duration;
#X msg 459 56 20;
#X obj 65 335 float;
#X obj 137 335 float;
#X obj 207 335 float;
#X obj 276 335 float;
#X obj 346 335 float;
#X obj 416 335 float;
#X obj 125 516 symbol;
#X obj 33 95 t b s;
#X obj 45 130 symbol;
#X obj 70 460 t b f;
#X obj 30 170 t b b b b b b s;
#X connect 0 0 31 0;
#X connect 1 0 15 0;
#X connect 2 0 0 0;
#X connect 3 0 6 1;
#X connect 3 0 8 1;
#X connect 3 0 10 1;
#X connect 3 0 12 1;
#X connect 3 0 14 1;
#X connect 3 0 2 1;
#X connect 5 0 17 3;
#X connect 6 0 5 0;
#X connect 7 0 17 4;
#X connect 8 0 7 0;
#X connect 9 0 17 6;
#X connect 10 0 9 0;
#X connect 11 0 17 7;
#X connect 12 0 11 0;
#X connect 13 0 17 8;
#X connect 14 0 13 0;
#X connect 15 0 29 0;
#X connect 15 1 30 1;
#X connect 15 2 17 1;
#X connect 15 3 22 1;
#X connect 15 4 23 1;
#X connect 15 5 24 1;
#X connect 15 6 17 5;
#X connect 15 7 25 1;
#X connect 15 8 26 1;
#X connect 15 9 27 1;
#X connect 17 0 16 0;
#X connect 18 0 21 0;
#X connect 21 0 0 2;
#X connect 21 0 5 2;
#X connect 21 0 7 2;
#X connect 21 0 9 2;
#X connect 21 0 11 2;
#X connect 21 0 13 2;
#X connect 22 0 2 0;
#X connect 23 0 6 0;
#X connect 24 0 8 0;
#X connect 25 0 10 0;
#X connect 26 0 12 0;
#X connect 27 0 14 0;
#X connect 28 0 17 0;
#X connect 29 0 30 0;
#X connect 29 1 16 1;
#X connect 30 0 32 0;
#X connect 31 0 28 0;
#X connect 31 1 17 2;
#X connect 32 0 22 0;
#X connect 32 1 23 0;
#X connect 32 2 24 0;
#X connect 32 3 25 0;
#X connect 32 4 26 0;
#X connect 32 5 27 0;
#X connect 32 6 28 1;
