#N struct draw-image-struct float x float y float w float h;
#N canvas 1152 771 370 177 12;
#N canvas 157 174 1438 673 anim-rec 0;
#X obj 380 220 cnv 15 289 311 empty empty Objects\ list 20 12 0 14
#e0e0e0 #404040 0;
#X obj 790 20 cnv 15 479 400 empty empty Player 20 12 0 14 #e0e0e0
#404040 0;
#X obj 46 45 cnv 15 319 154 empty empty Objects\ to\ follow 10 14 0
12 #e0e0e0 #404040 0;
#X obj 47 169 showtext;
#X obj 720 510 cnv 15 497 459 empty empty Keyframe\ creator 20 12 0
14 #e0e0e0 #404040 0;
#X obj 400 20 cnv 15 372 120 empty empty Animation\ storage 20 12 0
14 #e0e0e0 #404040 0;
#X obj 181 46 cnv 15 116 118 empty empty Keyframes 20 12 0 14 #f6b3b3
#404040 0;
#X obj 30 300 cnv 15 279 640 empty empty Check\ doublon 20 12 0 14
#e0e0e0 #404040 0;
#X obj 247 77 bng 20 250 50 0 empty empty New 22 8 0 12 #fcfcfc #000000
#000000;
#X obj 56 75 bng 20 250 50 0 empty empty Add\ selection 22 8 0 12 #fcfcfc
#000000 #000000;
#X obj 50 244 fc_process;
#X msg 50 220 get selection;
#X obj 489 412 list store;
#X obj 76 634 compare-any;
#X obj 76 604 drip;
#X obj 70 360 drip;
#X obj 489 470 list trim;
#X msg 417 372 check;
#X msg 622 369 get;
#X obj 489 446 list prepend;
#X obj 70 390 t a b b a b;
#X obj 76 756 spigot 1;
#X obj 48 834 list store;
#X msg 76 787 append \$1;
#X floatatom 247 110 5 0 0 0 Duration - #0-keyduration, f 5;
#X obj 48 856 list prepend append;
#X obj 48 878 list trim;
#X obj 76 688 spigot;
#X obj 76 662 t f f;
#X msg 76 717 0;
#X text 139 698 if similar...;
#X msg 164 662 1;
#X text 196 662 first open door;
#X text 146 744 ... close the door;
#X obj 56 105 bng 20 250 50 0 empty empty Clear 22 8 0 12 #fcfcfc #000000
#000000;
#X obj 430 300 t b b;
#X msg 528 372 show;
#X obj 489 494 route check show get;
#X obj 49 906 t b a;
#X obj 430 257 t b b;
#X obj 298 46 cnv 15 67 118 empty empty empty 20 12 0 14 #b7ffbf #404040
0;
#X obj 808 825 fc_getObjectProperty Placement;
#X obj 235 15 init 1000;
#X obj 808 850 list prepend;
#X obj 808 875 list prepend;
#X obj 606 304 t b b;
#X obj 247 140 bng 15 250 50 0 \$0-clearanimbtn empty Clear 17 7 0
10 #fcfcfc #000000 #000000;
#X obj 1004 665 + 1;
#X floatatom 1004 611 5 0 0 0 - - -, f 5;
#X obj 1004 636 t f f;
#X msg 949 664 set \$1;
#X obj 909 768 spigot;
#X obj 998 768 spigot 1;
#X obj 305 61 bng 20 250 50 0 \$0-playbtn empty Play 22 8 0 12 #fcfcfc
#000000 #000000;
#X obj 1063 698 t b f f;
#X floatatom 870 670 5 0 0 0 - - -, f 5;
#X msg 1004 581 set 1;
#X obj 835 596 t a b;
#X msg 816 150 create;
#X msg 876 151 clear;
#X obj 848 232 multi-player;
#X obj 800 80 t b b;
#X obj 184 77 bng 20 250 50 0 empty empty First 22 8 0 12 #fcfcfc #000000
#000000;
#X obj 300 210 t b b;
#X msg 220 240 0;
#X obj 190 210 t b b;
#X obj 305 87 tgl 20 0 \$0-loopsw empty Loop 22 8 0 12 #fcfcfc #000000
#000000 0 1;
#X obj 1130 306 spigot;
#X floatatom 1170 280 5 0 0 0 - - -, f 5;
#X obj 50 330 t b a b;
#X obj 835 567 drip 200;
#X msg 590 80 -1;
#X obj 800 50 r \$0-playbtn;
#X msg 970 150 line 0;
#X msg 930 150 auto;
#X obj 930 120 t b b;
#X obj 184 140 bng 15 250 50 0 \$0-editbtn empty Edit 17 7 0 10 #fcfcfc
#000000 #000000;
#X obj 410 50 r \$0-editbtn;
#X msg 410 80 click;
#X obj 1180 250 r \$0-loopsw;
#X obj 1120 360 spigot 1;
#X obj 1180 330 == 0;
#X obj 1130 220 t b b b;
#X text 1030 360 if no loop;
#X obj 590 50 r \$0-clearanimbtn;
#X obj 870 630 r \$0-keyduration;
#X obj 220 270 s \$0-keyduration;
#X obj 808 900 t a b;
#X msg 870 910 1e+06;
#X floatatom 900 730 5 0 0 0 Last-duration - -, f 5;
#X obj 890 700 t f b f;
#X obj 950 730 pack f f;
#X obj 1020 740 == 0;
#X obj 740 670 r \$0-clearanimbtn;
#X msg 740 700 0;
#X msg 909 797 0 \$2;
#X msg 998 799 \$1 \$2;
#X text 1107 649 Is 1st item ?;
#X obj 835 538 t a b;
#X obj 1060 660 == 1;
#X obj 1120 390 delay;
#X obj 410 110 text define \$0-animation;
#X obj 590 109 text delete \$0-animation;
#X obj 940 190 text sequence \$0-animation -w 1;
#X obj 808 940 text set \$0-animation;
#X obj 834 759 t b a a;
#X obj 50 270 unList;
#X obj 954 309 print;
#X connect 8 0 63 0;
#X connect 9 0 11 0;
#X connect 10 0 106 0;
#X connect 11 0 10 0;
#X connect 12 0 19 0;
#X connect 13 0 28 0;
#X connect 14 0 13 0;
#X connect 15 0 20 0;
#X connect 16 0 37 0;
#X connect 17 0 19 1;
#X connect 18 0 19 1;
#X connect 19 0 16 0;
#X connect 20 0 21 0;
#X connect 20 1 12 0;
#X connect 20 2 17 0;
#X connect 20 3 13 1;
#X connect 20 4 31 0;
#X connect 21 0 23 0;
#X connect 22 0 25 0;
#X connect 23 0 22 0;
#X connect 25 0 26 0;
#X connect 26 0 38 0;
#X connect 27 0 29 0;
#X connect 28 0 27 0;
#X connect 28 1 27 1;
#X connect 29 0 21 1;
#X connect 31 0 21 1;
#X connect 34 0 39 0;
#X connect 35 0 12 0;
#X connect 35 1 36 0;
#X connect 36 0 19 1;
#X connect 37 0 14 0;
#X connect 37 1 60 1;
#X connect 37 1 3 0;
#X connect 37 2 98 0;
#X connect 38 0 35 0;
#X connect 38 1 12 0;
#X connect 39 0 35 0;
#X connect 39 1 12 1;
#X connect 41 1 43 0;
#X connect 42 0 24 0;
#X connect 43 0 44 0;
#X connect 44 0 87 0;
#X connect 45 0 12 0;
#X connect 45 1 18 0;
#X connect 47 0 50 0;
#X connect 48 0 49 0;
#X connect 49 0 47 0;
#X connect 49 1 99 0;
#X connect 50 0 48 0;
#X connect 51 0 95 0;
#X connect 52 0 96 0;
#X connect 54 0 55 0;
#X connect 54 1 92 0;
#X connect 54 2 52 1;
#X connect 55 0 90 0;
#X connect 56 0 48 0;
#X connect 57 0 105 0;
#X connect 57 1 48 0;
#X connect 58 0 60 0;
#X connect 59 0 60 0;
#X connect 61 0 75 0;
#X connect 61 1 58 0;
#X connect 62 0 65 0;
#X connect 63 0 45 0;
#X connect 63 1 24 0;
#X connect 64 0 86 0;
#X connect 65 0 45 0;
#X connect 65 1 64 0;
#X connect 67 0 75 0;
#X connect 68 0 67 1;
#X connect 68 0 81 0;
#X connect 69 0 22 0;
#X connect 69 1 15 0;
#X connect 69 2 22 1;
#X connect 70 0 57 0;
#X connect 71 0 102 0;
#X connect 72 0 61 0;
#X connect 73 0 103 0;
#X connect 74 0 103 0;
#X connect 75 0 74 0;
#X connect 75 1 73 0;
#X connect 77 0 78 0;
#X connect 78 0 101 0;
#X connect 79 0 68 0;
#X connect 80 0 100 0;
#X connect 81 0 80 1;
#X connect 82 0 80 0;
#X connect 82 1 67 0;
#X connect 82 2 68 0;
#X connect 84 0 71 0;
#X connect 85 0 55 0;
#X connect 87 0 104 0;
#X connect 87 1 88 0;
#X connect 88 0 104 1;
#X connect 89 0 91 0;
#X connect 89 0 100 1;
#X connect 90 0 89 0;
#X connect 90 1 89 0;
#X connect 90 2 91 1;
#X connect 91 0 51 0;
#X connect 91 0 52 0;
#X connect 92 0 51 1;
#X connect 93 0 94 0;
#X connect 94 0 89 0;
#X connect 95 0 44 1;
#X connect 96 0 44 1;
#X connect 98 0 70 0;
#X connect 98 1 56 0;
#X connect 99 0 54 0;
#X connect 100 0 59 0;
#X connect 103 0 60 2;
#X connect 103 0 107 0;
#X connect 103 2 82 0;
#X connect 105 0 41 0;
#X connect 105 1 43 1;
#X connect 105 2 41 1;
#X connect 106 0 69 0;
#X coords 0 0 1 1 320 154 1 45 45;
#X restore 10 10 pd anim-rec;
