#N canvas 156 103 1174 850 12;
#X obj 881 -16 cnv 15 227 245 empty empty DEBUG 20 12 0 14 #e0e0e0
#404040 0;
#X obj 183 -21 inlet;
#X text 183 -50 Objects;
#X text 705 -48 anim line;
#X obj 705 -18 inlet;
#X obj 179 62 list;
#X obj 5 -18 inlet;
#X text 5 -48 command;
#X text 106 95 CREATE;
#X obj 179 91 drip;
#X obj 183 8 any;
#X obj 296 122 + 1;
#X floatatom 296 68 5 0 0 0 - - -, f 5;
#X obj 296 93 t f f;
#X msg 241 121 set \$1;
#X obj 179 121 t a b;
#X obj 183 35 t a b;
#X msg 296 38 set 0;
#X obj 208 153 * 100;
#X obj 705 21 list split 1;
#X obj 322 144 +;
#X obj 344 189 + 1;
#X obj 295 168 t f f;
#X obj 357 95 * 2;
#X obj 209 177 + 500;
#X obj 365 380 s pd-multi-player.pd;
#X text 519 35 first dynamic object ID;
#X text 608 209 CLEAR;
#N canvas 148 323 450 425 object 0;
#X obj 40 23 inlet;
#X obj 40 69 outlet;
#X obj 40 46 canvasindex;
#X connect 0 0 2 0;
#X connect 2 0 1 0;
#X restore 920 63 pd object by name;
#X symbolatom 920 39 0 0 0 0 - - -;
#X obj 416 -4 loadbang;
#X obj 920 20 bng 15 250 50 0 empty empty empty 17 7 0 10 #fcfcfc #000000
#000000;
#X obj 5 16 route create clear;
#X msg 484 104 500;
#X obj 484 127 + 30;
#X obj 229 240 pack s f f f f f f f;
#X text 519 104 \$7 Y for 1st new object;
#X text 519 127 \$8 Y for 2d new object;
#X text 142 153 delta X;
#X text 128 178 initial X;
#N canvas 6 61 450 300 object 0;
#X obj 40 23 inlet;
#X obj 40 46 canvasindex;
#X obj 40 69 outlet;
#X obj 103 69 outlet;
#X connect 0 0 1 0;
#X connect 1 0 2 0;
#X connect 1 1 3 0;
#X restore 952 111 pd object by index;
#X obj 920 87 t f f;
#X obj 920 164 list trim;
#X obj 920 193 print;
#X obj 920 136 list append;
#X text 519 81 \$6 list trim 0 ID;
#X floatatom 1007 36 5 0 0 0 - - -, f 5;
#X obj 737 333 canvasdelete;
#X obj 655 280 list store;
#X obj 678 213 t b b;
#X obj 655 305 drip;
#X msg 655 333 delete \$1;
#X msg 655 256 append \$1 \$1;
#X obj 704 48 t b a;
#X text 519 58 \$5 t b a ID;
#X msg 229 267 obj \$2 \$7 filter \$1 \, connect \$6 0 \$3 0 \, obj
\$2 \$8 anim-player \, connect \$3 0 \$4 0 \, connect \$5 1 \$4 1;
#X obj 738 106 list trim 0;
#X obj 738 76 any;
#X msg 484 81 56;
#X msg 484 58 53;
#X msg 484 35 61;
#X connect 1 0 10 1;
#X connect 4 0 19 0;
#X connect 5 0 9 0;
#X connect 6 0 32 0;
#X connect 9 0 15 0;
#X connect 10 0 16 0;
#X connect 11 0 14 0;
#X connect 12 0 13 0;
#X connect 13 0 11 0;
#X connect 13 1 18 0;
#X connect 13 1 23 0;
#X connect 14 0 12 0;
#X connect 15 0 35 0;
#X connect 15 1 12 0;
#X connect 15 1 60 0;
#X connect 16 0 5 0;
#X connect 16 1 17 0;
#X connect 17 0 12 0;
#X connect 18 0 24 0;
#X connect 19 0 53 0;
#X connect 19 1 57 1;
#X connect 20 0 22 0;
#X connect 21 0 35 3;
#X connect 22 0 35 2;
#X connect 22 1 21 0;
#X connect 23 0 20 0;
#X connect 24 0 35 1;
#X connect 28 0 41 0;
#X connect 29 0 28 0;
#X connect 30 0 58 0;
#X connect 30 0 33 0;
#X connect 30 0 59 0;
#X connect 30 0 60 0;
#X connect 31 0 29 0;
#X connect 32 0 10 0;
#X connect 32 1 49 0;
#X connect 33 0 34 0;
#X connect 33 0 35 6;
#X connect 34 0 35 7;
#X connect 35 0 55 0;
#X connect 40 0 44 1;
#X connect 41 0 44 0;
#X connect 41 1 40 0;
#X connect 42 0 43 0;
#X connect 44 0 42 0;
#X connect 46 0 41 0;
#X connect 48 0 50 0;
#X connect 49 0 48 1;
#X connect 49 1 48 0;
#X connect 50 0 51 0;
#X connect 51 0 25 0;
#X connect 52 0 48 0;
#X connect 53 0 57 0;
#X connect 55 0 25 0;
#X connect 57 0 56 0;
#X connect 58 0 35 5;
#X connect 59 0 35 4;
#X connect 60 0 20 1;
#X connect 60 0 52 0;
