#N canvas 774 326 450 491 12;
#X obj 151 95 inlet;
#X obj 151 199 s \$0-showtext;
#X obj 52 52 cnv 15 20 20 empty \$0-showtext empty 0 10 0 10 #e0e0e0
#404040 0;
#X obj 151 147 list prepend label;
#X obj 151 173 list trim;
#X obj 151 121 list2symbol;
#X connect 0 0 5 0;
#X connect 3 0 4 0;
#X connect 4 0 1 0;
#X connect 5 0 3 0;
#X coords 0 -1 1 1 316 27 2 49 48;
