#N canvas 569 282 550 413 12;
#X msg 100 110 10;
#X obj 280 150 fc_placement;
#X obj 100 10 bng 15 250 50 0 empty empty empty 17 7 0 10 #fcfcfc #000000
#000000;
#X obj 230 110 fc_vector 50 0 0;
#X obj 100 34 t b b b;
#X obj 360 110 fc_rotation 45 45 0;
#X obj 100 190 draft/make_circle;
#X connect 0 0 6 0;
#X connect 1 0 6 1;
#X connect 2 0 4 0;
#X connect 3 0 1 0;
#X connect 4 0 0 0;
#X connect 4 1 3 0;
#X connect 4 2 5 0;
#X connect 5 0 1 1;
