#N canvas 677 466 529 300 12;
#X msg 90 110 10;
#X msg 130 110 20;
#X msg 170 110 30;
#X obj 90 40 bng 15 250 50 0 empty empty empty 17 7 0 10 #fcfcfc #000000
#000000;
#X obj 90 70 t b b b b b;
#X obj 90 150 part/makeBox;
#X msg 210 40 20 50 20 Vector 10 0 0 Vector 0 0 1;
#X text 80 10 with objects;
#X text 210 10 with message;
#X obj 90 180 part/show;
#X obj 220 110 XYZvector 0 0 0;
#X obj 340 110 XYZvector 0 0 1;
#X connect 0 0 5 0;
#X connect 1 0 5 1;
#X connect 2 0 5 2;
#X connect 3 0 4 0;
#X connect 4 0 0 0;
#X connect 4 1 1 0;
#X connect 4 2 2 0;
#X connect 4 3 10 0;
#X connect 4 4 11 0;
#X connect 5 0 9 0;
#X connect 6 0 5 0;
#X connect 10 0 5 3;
#X connect 11 0 5 4;
