#N canvas 818 272 597 375 12;
#X obj 110 100 fc_process;
#X obj 180 229 fc_process 1;
#X msg 110 60 get reference Body;
#X obj 90 170 print ref;
#X obj 180 258 print return;
#X obj 180 170 pack s;
#X msg 180 200 set property Part Group list 1 \$1;
#X text 130 10 Move Body in Part;
#X text 250 60 Click me !;
#X obj 420 80 fc_list;
#X obj 420 109 print;
#X connect 0 0 3 0;
#X connect 0 0 5 0;
#X connect 0 0 9 0;
#X connect 1 0 4 0;
#X connect 2 0 0 0;
#X connect 5 0 6 0;
#X connect 6 0 1 0;
#X connect 9 0 10 0;
