#N canvas 768 546 473 300 12;
#X obj 90 150 Part/makeBox;
#X msg 90 110 10;
#X msg 130 110 20;
#X msg 170 110 30;
#X obj 90 40 bng 15 250 50 0 empty empty empty 17 7 0 10 #fcfcfc #000000
#000000;
#X obj 220 110 fc_vector 0 0 0;
#X obj 340 110 fc_vector 0 0 1;
#X obj 90 70 t b b b b b;
#X connect 1 0 0 0;
#X connect 2 0 0 1;
#X connect 3 0 0 2;
#X connect 4 0 7 0;
#X connect 5 0 0 3;
#X connect 6 0 0 4;
#X connect 7 0 1 0;
#X connect 7 1 2 0;
#X connect 7 2 3 0;
#X connect 7 3 5 0;
#X connect 7 4 6 0;
