#N struct draw-image-struct float x float y float w float h;
#N canvas 504 188 890 692 12;
#X floatatom 250 600 5 0 0 0 - - -, f 5;
#X obj 190 660 fc_recompute;
#X obj 190 10 bng 15 250 50 0 empty empty New\ Sketch 17 7 0 10 #fcfcfc
#000000 #000000;
#X obj 190 630 fc_setSketchConstraint diameter;
#X obj 490 210 list cat;
#X obj 460 10 bng 15 250 50 0 empty empty make\ Loft 17 7 0 10 #fcfcfc
#000000 #000000;
#X obj 190 190 fc_getObjectProperty Placement;
#X obj 190 450 fc_setObjectProperty Placement;
#X obj 640 10 bng 15 250 50 0 empty empty reset 17 7 0 10 #fcfcfc #000000
#000000;
#X msg 580 180 clear;
#X obj 190 100 fc_copy;
#X obj 710 370 list cat;
#X text 550 210 Sketches to loft;
#X text 710 390 All PD created objects;
#X msg 800 340 clear;
#X text 10 100 copy last created sketch;
#X text 50 240 translation vector;
#X text 70 340 rotation vector;
#X text 290 600 new diameter;
#X obj 680 420 fc_delete;
#X obj 250 481 loadbang;
#X obj 250 510 timer;
#X msg 250 540 seed \$1;
#X obj 250 569 random 50;
#X obj 460 310 fc_addObject Part Loft;
#X obj 490 270 list prepend Sections;
#X obj 220 330 t a b;
#X obj 300 260 XYZvector 0 0 10;
#X obj 220 300 translatePlacement;
#X obj 270 360 YPRrotation 30 0 0;
#X obj 220 389 rotatePlacement;
#X obj 490 240 fcList;
#X obj 290 220 t a b;
#X obj 190 480 t b b;
#X obj 400 600 r \$0-sketch;
#X obj 710 340 r \$0-sketch;
#X obj 490 180 r \$0-sketch;
#X obj 330 420 r \$0-sketch;
#X obj 210 70 r \$0-sketch;
#X obj 240 130 t a a;
#X obj 290 160 send \$0-sketch;
#X msg 640 100 Sketch;
#X obj 126 423 print;
#X obj 700 10 loadbang;
#X obj 300 70 r \$0-initsketch;
#X obj 640 130 send \$0-initsketch;
#X obj 640 40 t b b b b;
#X obj 660 70 send \$0-sketch;
#X connect 0 0 3 1;
#X connect 2 0 10 0;
#X connect 3 0 1 0;
#X connect 4 0 31 0;
#X connect 5 0 24 0;
#X connect 6 0 7 0;
#X connect 6 1 32 0;
#X connect 7 0 33 0;
#X connect 8 0 46 0;
#X connect 9 0 4 1;
#X connect 10 0 6 0;
#X connect 10 1 39 0;
#X connect 11 0 19 1;
#X connect 14 0 11 1;
#X connect 20 0 21 0;
#X connect 21 0 22 0;
#X connect 22 0 23 0;
#X connect 23 0 0 0;
#X connect 24 0 11 0;
#X connect 25 0 24 1;
#X connect 26 0 30 0;
#X connect 26 1 29 0;
#X connect 27 0 28 1;
#X connect 28 0 26 0;
#X connect 28 0 42 0;
#X connect 29 0 30 1;
#X connect 30 0 7 1;
#X connect 30 0 42 0;
#X connect 31 0 25 0;
#X connect 32 0 28 0;
#X connect 32 1 27 0;
#X connect 33 0 3 0;
#X connect 33 1 23 0;
#X connect 34 0 3 2;
#X connect 35 0 11 0;
#X connect 36 0 4 0;
#X connect 37 0 7 2;
#X connect 38 0 10 1;
#X connect 39 0 6 1;
#X connect 39 1 40 0;
#X connect 41 0 45 0;
#X connect 43 0 46 0;
#X connect 44 0 10 1;
#X connect 46 0 41 0;
#X connect 46 1 47 0;
#X connect 46 2 14 0;
#X connect 46 2 9 0;
#X connect 46 3 19 0;
