#N canvas 570 146 612 541 12;
#X obj 50 120 clone one_spline 10;
#X obj 50 30 bng 45 250 50 0 empty empty click\ me! -7 -10 0 12 #fcfcfc
#000000 #000000;
#X msg 50 90 all bang;
#X obj 50 360 list store;
#X msg 100 180 append \$2;
#X obj 50 150 t a a;
#X obj 20 240 route 9;
#X obj 20 270 b;
#X msg 180 360 bang;
#X obj 50 450 fc_object Part Loft;
#X text 130 90 send bang to every instances;
#X text 180 180 clone returns the abstraction output preceed by the
instance index \, so \$2 is the object name;
#X text 100 240 for the last instance (index is 0 to 9);
#X text 100 270 drop the list;
#X text 220 360 clear the list;
#X obj 50 390 fc_list;
#X obj 50 420 list prepend Sections;
#X text 200 120 create 10 instances of the abstraction one_spline.pd
;
#X connect 0 0 5 0;
#X connect 1 0 2 0;
#X connect 2 0 0 0;
#X connect 3 0 15 0;
#X connect 4 0 3 0;
#X connect 5 0 6 0;
#X connect 5 1 4 0;
#X connect 6 0 7 0;
#X connect 7 0 3 0;
#X connect 8 0 3 1;
#X connect 9 0 8 0;
#X connect 15 0 16 0;
#X connect 16 0 9 0;
