#N canvas 580 148 612 541 12;
#X obj 50 30 bng 45 250 50 0 empty empty click\ me! -7 -10 0 12 #fcfcfc
#000000 #000000;
#X msg 50 90 all bang;
#X msg 260 450 bang;
#X obj 50 420 fc_addObject Part Loft;
#X text 130 90 send bang to every instances;
#X text 90 150 clone returns the abstraction output preceed by the
instance index \, so \$2 is the object name;
#X text 300 450 clear the list;
#X text 200 120 create 10 instances of the abstraction one_spline.pd
;
#X obj 100 260 fcList;
#X obj 50 120 clone one_spline 10;
#X text 30 400 go;
#X msg 50 150 \$2;
#X obj 180 200 list;
#X obj 50 340 list length;
#X text 220 200 store the results;
#X obj 50 230 t a a;
#X obj 50 370 moses 10;
#X text 120 370 split message flow <10 go left and >=10 go right;
#X text 260 290 property to initialize;
#X obj 100 290 list prepend Sections;
#X obj 50 200 list prepend;
#X connect 0 0 1 0;
#X connect 1 0 9 0;
#X connect 2 0 12 1;
#X connect 2 0 20 1;
#X connect 3 0 2 0;
#X connect 8 0 19 0;
#X connect 9 0 11 0;
#X connect 11 0 20 0;
#X connect 12 0 20 1;
#X connect 13 0 16 0;
#X connect 15 0 13 0;
#X connect 15 1 8 0;
#X connect 16 1 3 0;
#X connect 19 0 3 1;
#X connect 20 0 12 0;
#X connect 20 0 15 0;
