#N canvas 1010 160 505 521 12;
#X obj 20 110 fc_selObserver;
#X obj 20 170 drip;
#X msg 90 360 0 100;
#X obj 20 389 line~;
#X obj 20 450 *~;
#X msg 20 360 0.1 100;
#X obj 20 490 dac~;
#X obj 20 200 list trim;
#X obj 20 140 t a b;
#X obj 20 10 loadbang;
#X msg 20 40 \; pd dsp 1;
#X obj 20 290 mtof;
#X obj 20 320 t b f;
#X text 220 40 start audio processing at launch time;
#X text 220 110 get real-time selection information;
#X text 220 140 trigger right to left bang and anything;
#X text 220 170 convert list to sequence;
#X text 220 200 remove 'symbol' from the message;
#X text 220 290 convert midi note to frequency;
#X text 220 320 trigger right to left float and bang;
#X text 220 370 fade in or fade out \, 100ms;
#X text 220 420 main oscillator;
#X text 220 490 audio output;
#X floatatom 20 260 5 0 0 0 - - -, f 5;
#X obj 70 420 osc~;
#X obj 20 230 fc_getObjectProperty Label2;
#X text 220 230 get Label2 from object name;
#X connect 0 0 8 0;
#X connect 1 0 7 0;
#X connect 2 0 3 0;
#X connect 3 0 4 0;
#X connect 4 0 6 0;
#X connect 4 0 6 1;
#X connect 5 0 3 0;
#X connect 7 0 25 0;
#X connect 8 0 1 0;
#X connect 8 1 2 0;
#X connect 9 0 10 0;
#X connect 11 0 12 0;
#X connect 12 0 5 0;
#X connect 12 1 24 0;
#X connect 23 0 11 0;
#X connect 24 0 4 1;
#X connect 25 0 23 0;
