#N struct draw-image-struct float x float y float w float h;
#N canvas 356 207 398 367 12;
#X obj 110 30 inlet;
#X obj 180 30 inlet;
#X obj 30 110 fc_copy True;
#X obj 30 260 fc_setSketchConstraint R1;
#X obj 30 170 fc_translate;
#X obj 180 70 unpack f f f;
#X obj 30 220 fc_getObjectProperty Base;
#X obj 180 110 XYZvector;
#X obj 30 30 inlet;
#X text 30 10 go;
#X obj 30 290 fc_recompute;
#X connect 0 0 2 1;
#X connect 1 0 5 0;
#X connect 2 0 4 0;
#X connect 2 1 4 1;
#X connect 2 1 6 1;
#X connect 3 0 10 0;
#X connect 4 0 6 0;
#X connect 5 0 7 0;
#X connect 5 1 7 1;
#X connect 5 2 3 1;
#X connect 6 0 3 0;
#X connect 6 1 3 2;
#X connect 7 0 4 2;
#X connect 8 0 2 0;
#X coords 0 0 1 1 223 112 0;
