#N struct draw-image-struct float x float y float w float h;
#N canvas 331 202 712 594 12;
#X obj 10 10 inlet;
#X obj 160 10 inlet;
#X obj 10 220 outlet;
#X obj 10 50 fc_copy True;
#X obj 120 350 fc_setSketchConstraint R1;
#X obj 160 90 fc_vector;
#X obj 110 130 fc_translate;
#X obj 160 50 unpack f f f;
#X obj 10 79 t a a a;
#X obj 120 270 t b a;
#X obj 120 320 f;
#X obj 120 230 fc_getObjectProperty Base;
#X connect 0 0 3 0;
#X connect 1 0 7 0;
#X connect 3 0 8 0;
#X connect 5 0 6 1;
#X connect 7 0 5 0;
#X connect 7 1 5 1;
#X connect 7 2 10 1;
#X connect 8 0 2 0;
#X connect 8 1 11 0;
#X connect 8 2 6 0;
#X connect 9 0 10 0;
#X connect 9 1 4 1;
#X connect 10 0 4 0;
#X connect 11 0 9 0;
#X coords 0 0 1 1 223 112 0;
