#N canvas 495 163 846 793 12;
#X obj 270 30 bng 30 250 50 0 empty empty Start! 30 10 0 20 #fcfcfc
#000000 #000000;
#X obj 350 310 *;
#X obj 330 370 until;
#X msg 400 370 0;
#X obj 330 400 f;
#X obj 372 400 + 1;
#X text 380 190 lines;
#X text 460 190 columns;
#X obj 670 480 random;
#X obj 670 510 +;
#X obj 330 610 pack f f f f;
#X obj 350 339 t f b;
#X text 440 370 for 0 to lines*columns;
#X text 670 530 5 <= ? < 10+5;
#X obj 330 439 t f f f b;
#X obj 400 120 t b b b b;
#X msg 710 420 10;
#X msg 760 430 5;
#X obj 390 490 mod;
#X obj 350 490 div;
#X obj 230 230 list prepend all;
#X obj 230 260 list trim;
#X obj 270 70 t b b;
#X obj 430 219 t f f f;
#X obj 390 519 * 60;
#X obj 350 519 * 60;
#X msg 350 190 5;
#X msg 430 190 7;
#X obj 220 670 clone cloner 35;
#X obj 390 550 expr $f1*sin(4./3*atan(1));
#X text 470 530 pi = 4*atan(1);
#X obj 220 150 fc_byLabel Tile;
#X msg 220 500 all bang;
#X connect 0 0 22 0;
#X connect 1 0 11 0;
#X connect 2 0 4 0;
#X connect 3 0 4 1;
#X connect 4 0 5 0;
#X connect 4 0 14 0;
#X connect 5 0 4 1;
#X connect 8 0 9 0;
#X connect 9 0 10 3;
#X connect 10 0 28 2;
#X connect 11 0 2 0;
#X connect 11 1 3 0;
#X connect 14 0 10 0;
#X connect 14 1 19 0;
#X connect 14 2 18 0;
#X connect 14 3 8 0;
#X connect 15 0 26 0;
#X connect 15 1 27 0;
#X connect 15 2 16 0;
#X connect 15 3 17 0;
#X connect 16 0 8 1;
#X connect 17 0 9 1;
#X connect 18 0 24 0;
#X connect 19 0 25 0;
#X connect 20 0 21 0;
#X connect 21 0 28 1;
#X connect 22 0 31 0;
#X connect 22 1 15 0;
#X connect 23 0 1 1;
#X connect 23 1 19 1;
#X connect 23 2 18 1;
#X connect 24 0 29 0;
#X connect 25 0 10 1;
#X connect 26 0 1 0;
#X connect 27 0 23 0;
#X connect 29 0 10 2;
#X connect 31 0 32 0;
#X connect 31 1 20 0;
#X connect 32 0 28 0;
